<mxfile host="app.diagrams.net" modified="2024-05-11T11:50:07.209Z" agent="Mozilla/5.0 (X11; Linux x86_64) AppleWebKit/537.36 (KHTML, like Gecko) Chrome/123.0.0.0 Safari/537.36" etag="vaZU3nqZDLFfEUWqh_XL" version="24.4.0" type="device">
  <diagram name="Page-1" id="oCuc_Zp2QYc0qxA8LAQu">
    <mxGraphModel dx="1434" dy="1888" grid="1" gridSize="10" guides="1" tooltips="1" connect="1" arrows="1" fold="1" page="1" pageScale="1" pageWidth="850" pageHeight="1100" math="0" shadow="0">
      <root>
        <mxCell id="0" />
        <mxCell id="1" parent="0" />
        <mxCell id="FeZeFqgIxQ5EetEHxUt5-10" value="" style="rounded=0;whiteSpace=wrap;html=1;" vertex="1" parent="1">
          <mxGeometry x="180" y="110" width="500" height="385" as="geometry" />
        </mxCell>
        <mxCell id="FeZeFqgIxQ5EetEHxUt5-3" value="" style="edgeStyle=orthogonalEdgeStyle;rounded=0;orthogonalLoop=1;jettySize=auto;html=1;" edge="1" parent="1" source="FeZeFqgIxQ5EetEHxUt5-1" target="FeZeFqgIxQ5EetEHxUt5-2">
          <mxGeometry relative="1" as="geometry" />
        </mxCell>
        <mxCell id="FeZeFqgIxQ5EetEHxUt5-1" value="front-end&lt;br&gt;5000" style="rounded=0;whiteSpace=wrap;html=1;" vertex="1" parent="1">
          <mxGeometry x="365" y="160" width="120" height="60" as="geometry" />
        </mxCell>
        <mxCell id="FeZeFqgIxQ5EetEHxUt5-5" style="edgeStyle=orthogonalEdgeStyle;rounded=0;orthogonalLoop=1;jettySize=auto;html=1;entryX=0.5;entryY=0;entryDx=0;entryDy=0;" edge="1" parent="1" source="FeZeFqgIxQ5EetEHxUt5-2" target="FeZeFqgIxQ5EetEHxUt5-4">
          <mxGeometry relative="1" as="geometry" />
        </mxCell>
        <mxCell id="FeZeFqgIxQ5EetEHxUt5-7" style="edgeStyle=orthogonalEdgeStyle;rounded=0;orthogonalLoop=1;jettySize=auto;html=1;entryX=0.5;entryY=0;entryDx=0;entryDy=0;" edge="1" parent="1" source="FeZeFqgIxQ5EetEHxUt5-2" target="FeZeFqgIxQ5EetEHxUt5-6">
          <mxGeometry relative="1" as="geometry" />
        </mxCell>
        <mxCell id="FeZeFqgIxQ5EetEHxUt5-2" value="back-end&lt;br&gt;3000" style="rounded=0;whiteSpace=wrap;html=1;" vertex="1" parent="1">
          <mxGeometry x="365" y="280" width="120" height="60" as="geometry" />
        </mxCell>
        <mxCell id="FeZeFqgIxQ5EetEHxUt5-4" value="postgres&lt;br&gt;5432" style="rounded=0;whiteSpace=wrap;html=1;" vertex="1" parent="1">
          <mxGeometry x="220" y="380" width="120" height="60" as="geometry" />
        </mxCell>
        <mxCell id="FeZeFqgIxQ5EetEHxUt5-9" style="edgeStyle=orthogonalEdgeStyle;rounded=0;orthogonalLoop=1;jettySize=auto;html=1;entryX=0.5;entryY=1;entryDx=0;entryDy=0;" edge="1" parent="1" source="FeZeFqgIxQ5EetEHxUt5-6" target="FeZeFqgIxQ5EetEHxUt5-8">
          <mxGeometry relative="1" as="geometry" />
        </mxCell>
        <mxCell id="FeZeFqgIxQ5EetEHxUt5-6" value="data-service&lt;br&gt;8080" style="rounded=0;whiteSpace=wrap;html=1;" vertex="1" parent="1">
          <mxGeometry x="520" y="380" width="120" height="60" as="geometry" />
        </mxCell>
        <mxCell id="FeZeFqgIxQ5EetEHxUt5-8" value="google.com&lt;br&gt;(443)" style="rounded=0;whiteSpace=wrap;html=1;" vertex="1" parent="1">
          <mxGeometry x="690" y="30" width="120" height="60" as="geometry" />
        </mxCell>
        <mxCell id="FeZeFqgIxQ5EetEHxUt5-12" style="edgeStyle=orthogonalEdgeStyle;rounded=0;orthogonalLoop=1;jettySize=auto;html=1;" edge="1" parent="1" source="FeZeFqgIxQ5EetEHxUt5-11" target="FeZeFqgIxQ5EetEHxUt5-1">
          <mxGeometry relative="1" as="geometry" />
        </mxCell>
        <mxCell id="FeZeFqgIxQ5EetEHxUt5-11" value="Actor" style="shape=umlActor;verticalLabelPosition=bottom;verticalAlign=top;html=1;outlineConnect=0;" vertex="1" parent="1">
          <mxGeometry x="410" y="-30" width="30" height="60" as="geometry" />
        </mxCell>
      </root>
    </mxGraphModel>
  </diagram>
</mxfile>
